<svg xmlns="http://www.w3.org/2000/svg" width="14" height="19" viewBox="0 0 14 19">
  <defs>
    <style>
      .cls-1 {
        fill: #fff;
        fill-rule: evenodd;
      }
    </style>
  </defs>
  <path class="cls-1" d="M863,27a6.949,6.949,0,0,0-7,6.88c0,4.708,6.264,11.62,6.531,11.911a0.638,0.638,0,0,0,.938,0c0.267-.291,6.531-7.2,6.531-11.911A6.949,6.949,0,0,0,863,27Zm0,17.428c-2.108-2.462-5.739-7.317-5.739-10.549a5.74,5.74,0,0,1,11.478,0C868.739,37.111,865.109,41.966,863,44.428Zm0-14.01a3.462,3.462,0,1,0,3.522,3.461A3.5,3.5,0,0,0,863,30.418Zm0,5.684a2.223,2.223,0,1,1,2.261-2.223A2.244,2.244,0,0,1,863,36.1Z" transform="translate(-856 -27)"/>
</svg>
