<svg xmlns="http://www.w3.org/2000/svg" width="17" height="17" viewBox="0 0 17 17">
  <defs>
    <style>
      .cls-1 {
        fill: #fff;
        fill-rule: evenodd;
      }
    </style>
  </defs>
  <path class="cls-1" d="M1435.44,38.531a1.682,1.682,0,0,0-1.22-.556,1.734,1.734,0,0,0-1.23.553l-1.14,1.13c-0.09-.051-0.18-0.1-0.27-0.144a4.067,4.067,0,0,1-.36-0.19,12.3,12.3,0,0,1-2.96-2.691,6.879,6.879,0,0,1-.97-1.529c0.29-.269.56-0.549,0.83-0.817,0.1-.1.2-0.2,0.3-0.305a1.637,1.637,0,0,0,0-2.483l-0.98-.98c-0.11-.111-0.23-0.226-0.33-0.341-0.22-.222-0.45-0.452-0.68-0.667a1.715,1.715,0,0,0-1.21-.527,1.755,1.755,0,0,0-1.22.527s0,0-.01.007l-1.22,1.231a2.635,2.635,0,0,0-.78,1.668,6.181,6.181,0,0,0,.46,2.662,15.342,15.342,0,0,0,2.75,4.578,16.939,16.939,0,0,0,5.64,4.4,8.8,8.8,0,0,0,3.17.933c0.07,0,.15.007,0.22,0.007a2.715,2.715,0,0,0,2.08-.89,0.034,0.034,0,0,1,.02-0.018,6.643,6.643,0,0,1,.63-0.65c0.15-.148.31-0.3,0.46-0.463a1.779,1.779,0,0,0,.55-1.242,1.7,1.7,0,0,0-.56-1.23Zm1.29,3.778c-0.01,0-.01,0,0,0-0.15.151-.29,0.287-0.44,0.438a7.991,7.991,0,0,0-.7.718,1.729,1.729,0,0,1-1.35.57c-0.06,0-.11,0-0.17,0a7.745,7.745,0,0,1-2.8-.84,16.015,16.015,0,0,1-5.32-4.147,14.852,14.852,0,0,1-2.59-4.3,5.226,5.226,0,0,1-.4-2.246,1.662,1.662,0,0,1,.5-1.065l1.22-1.223a0.84,0.84,0,0,1,.55-0.255,0.783,0.783,0,0,1,.53.251s0,0.007.01,0.011c0.22,0.2.42,0.416,0.64,0.643,0.12,0.114.23,0.229,0.35,0.348l0.98,0.979a0.685,0.685,0,0,1,0,1.112c-0.11.1-.21,0.208-0.31,0.309-0.3.308-.59,0.6-0.9,0.875a0.037,0.037,0,0,0-.02.018,0.74,0.74,0,0,0-.19.814c0,0.011.01,0.022,0.01,0.033a8.226,8.226,0,0,0,1.16,1.891l0.01,0a13.222,13.222,0,0,0,3.19,2.9,4.449,4.449,0,0,0,.45.24,3.685,3.685,0,0,1,.35.19c0.02,0.007.03,0.018,0.05,0.025a0.745,0.745,0,0,0,.35.09,0.774,0.774,0,0,0,.55-0.248l1.23-1.227a0.815,0.815,0,0,1,.54-0.269,0.721,0.721,0,0,1,.52.262s0,0,.01.008l1.98,1.977A0.713,0.713,0,0,1,1436.73,42.308Zm-5.55-10.265a4.63,4.63,0,0,1,3.77,3.76,0.48,0.48,0,0,0,.48.4,0.7,0.7,0,0,0,.08-0.008,0.492,0.492,0,0,0,.4-0.559,5.6,5.6,0,0,0-1.56-3,5.523,5.523,0,0,0-3.01-1.553A0.484,0.484,0,1,0,1431.18,32.044Zm7.81,3.455a9.191,9.191,0,0,0-7.51-7.492,0.484,0.484,0,1,0-.16.954,8.246,8.246,0,0,1,6.72,6.695,0.469,0.469,0,0,0,.47.4,0.683,0.683,0,0,0,.09-0.008A0.471,0.471,0,0,0,1438.99,35.5Z" transform="translate(-1422 -28)"/>
</svg>
